# xmcd
#
# Track frame offsets: 
#        150
#        12481
#        24329
#        36641
#        48424
#        58073
#        69554
#        83689
#        95963
#        104592
#        116016
#        129820
#        143718
#        153971
#        167259
#        171240
#        182129
#        190627
#        205042
#        217573
#
# Disc length: 3033 seconds
#
# Revision: 0
# Processed by: cddbd v1.5.2PL0 Copyright (c) Steve Scherf et al.
# Submitted via: ExactAudioCopyFreeDBPlugin 1.0
#
DISCID=0d0bd714
DTITLE=Various Artist - Ladies Of Country
DYEAR=2002
DGENRE=Country
TTITLE0=Lynn Anderson - Stand by your Man
TTITLE1=Patsy Cline - Walkin' After Midnight
TTITLE2=Lacy J. Dalton - Dream Baby
TTITLE3=Donna Fargo - The Happiest Girl in the Whole USA
TTITLE4=Barbara Mandrell - Please Release Me
TTITLE5=Dolly Parton - Makin' Believe
TTITLE6=Skeeter Davis - Devoted to You
TTITLE7=Jeanne Pruett - Satin Sheets
TTITLE8=Billie Jo Spears - You're My Man
TTITLE9=Kitty Wells - Heartbreak USA
TTITLE10=Lynn Anderson - Two Doors Down
TTITLE11=Lacy J. Dalton - Tennessee Waltz
TTITLE12=Patsy Cline - Turn the Cards Slowly
TTITLE13=Donna Fargo - Somebody Special
TTITLE14=Barbara Mandrell - Back in the Saddle
TTITLE15=Dolly Parton - It Wasn't God Who Made Honky Tonk Angels
TTITLE16=Sandy Posey - Born A Woman
TTITLE17=Jeanne Pruett - Temporarily Yours
TTITLE18=Billie Jo Spears - The Cheatin' Kind
TTITLE19=Kitty Wells - I Can't Stop Lovin' You
EXTD=
EXTT0=
EXTT1=
EXTT2=
EXTT3=
EXTT4=
EXTT5=
EXTT6=
EXTT7=
EXTT8=
EXTT9=
EXTT10=
EXTT11=
EXTT12=
EXTT13=
EXTT14=
EXTT15=
EXTT16=
EXTT17=
EXTT18=
EXTT19=
PLAYORDER=
